<?xml version="1.0" standalone="no"?>
<!DOCTYPE svg PUBLIC "-//W3C//DTD SVG 20010904//EN"
 "http://www.w3.org/TR/2001/REC-SVG-20010904/DTD/svg10.dtd">
<svg version="1.0" xmlns="http://www.w3.org/2000/svg"
 width="300.000000pt" height="287.000000pt" viewBox="0 0 300.000000 287.000000"
 preserveAspectRatio="xMidYMid meet">
<metadata>
Created by potrace 1.10, written by Peter Selinger 2001-2011
</metadata>
<g transform="translate(0.000000,287.000000) scale(0.100000,-0.100000)"
fill="#000000" stroke="none">
<path d="M1465 2261 c-74 -18 -121 -59 -154 -131 -25 -54 -26 -92 -6 -151 29
-84 98 -137 191 -146 108 -11 213 72 230 184 15 102 -60 216 -158 241 -51 13
-59 13 -103 3z m147 -67 c171 -119 29 -384 -166 -310 -50 19 -98 68 -90 91 4
10 2 13 -7 10 -21 -8 -23 76 -4 122 47 112 171 153 267 87z"/>
<path d="M885 2174 c-77 -42 -115 -101 -115 -179 0 -95 52 -166 138 -191 131
-38 240 34 258 170 9 63 -30 145 -86 182 -53 35 -148 44 -195 18z m139 -34
c31 0 93 -73 101 -119 13 -78 -33 -159 -103 -182 -67 -22 -175 16 -188 67 -3
13 -10 24 -15 24 -5 0 -9 26 -9 58 0 49 5 65 28 95 15 20 38 40 52 46 48 19
95 28 105 20 5 -5 18 -9 29 -9z"/>
<path d="M1965 2174 c-77 -40 -115 -101 -115 -184 0 -88 42 -151 124 -185 53
-22 130 -13 185 23 96 62 112 209 34 298 -50 57 -164 82 -228 48z m136 -35
c19 -7 43 -19 53 -28 31 -27 56 -92 50 -136 -11 -89 -70 -139 -164 -140 -47 0
-63 5 -93 28 -20 15 -37 33 -37 40 0 7 -6 24 -14 38 -30 58 9 154 76 188 49
24 80 26 129 10z"/>
<path d="M1322 1778 c-56 -12 -126 -78 -141 -133 -15 -54 -14 -402 0 -446 7
-19 24 -49 38 -67 65 -84 61 -59 61 -393 l0 -305 80 1 c44 1 83 4 86 8 6 6 53
303 54 340 0 30 19 18 24 -15 3 -18 15 -99 27 -180 l22 -147 74 -3 c41 -2 77
0 80 4 2 4 3 143 2 308 -1 265 0 302 15 322 48 66 77 116 86 148 13 47 13 375
-1 423 -16 58 -72 114 -132 132 -58 17 -303 19 -375 3z m390 -51 c31 -16 49
-34 66 -67 20 -43 22 -60 23 -225 0 -99 -4 -194 -9 -211 -5 -16 -30 -61 -56
-98 l-46 -67 -1 -107 c0 -59 0 -182 1 -273 0 -91 -2 -173 -6 -182 -4 -11 -18
-17 -40 -17 -39 0 -41 6 -69 185 -18 117 -34 155 -64 155 -27 0 -46 -49 -66
-165 -9 -55 -19 -109 -20 -120 -11 -61 -10 -60 -51 -56 -21 1 -43 5 -47 8 -4
2 -7 122 -6 266 1 144 -2 276 -6 292 -4 17 -25 53 -46 80 -21 28 -42 62 -48
77 -12 33 -22 128 -13 128 4 0 5 59 3 132 -4 151 5 191 51 235 49 46 78 52
250 52 141 -1 162 -3 200 -22z"/>
<path d="M1466 1660 c-54 -7 -76 -27 -76 -71 0 -31 -14 -44 -56 -53 -17 -4
-41 -16 -54 -28 -21 -20 -22 -27 -16 -106 6 -94 17 -111 73 -112 36 0 43 -8
49 -53 3 -18 16 -42 30 -54 21 -19 37 -23 92 -23 59 0 71 4 97 28 17 15 29 34
27 43 -5 24 45 76 59 62 8 -8 21 -3 45 19 28 26 32 34 23 50 -7 12 -7 24 -2
29 13 13 -1 107 -19 125 -8 9 -34 18 -57 21 -28 4 -41 11 -43 22 0 9 -2 21 -3
26 -2 6 -3 18 -4 27 -3 40 -68 59 -165 48z m132 -95 l-6 -65 64 0 64 0 0 -87
0 -88 -65 3 -64 4 6 -66 6 -66 -92 0 -93 0 7 66 8 66 -67 -4 -66 -3 0 88 0 87
66 0 66 0 -7 65 -7 65 92 0 93 0 -5 -65z"/>
<path d="M1905 1742 c23 -61 35 -168 35 -321 0 -189 -10 -260 -43 -311 -43
-64 -46 -91 -47 -348 l-1 -247 70 -3 c39 -2 71 1 71 5 1 4 11 80 23 168 21
148 38 196 45 128 1 -15 11 -87 22 -160 11 -73 20 -135 20 -138 0 -3 35 -5 78
-5 l77 0 0 283 0 284 26 34 c14 19 37 54 50 79 23 43 24 53 24 241 l0 195 -27
42 c-37 55 -73 72 -166 77 -276 16 -265 16 -257 -3z m157 -31 c24 -6 40 -5 47
2 8 8 11 7 11 -3 0 -13 2 -13 10 0 7 12 12 12 22 2 6 -6 29 -12 49 -12 46 0
93 -36 108 -83 11 -34 16 -238 8 -322 -6 -61 -16 -88 -57 -148 -17 -26 -33
-61 -36 -79 -2 -18 -6 -137 -7 -265 -1 -169 -5 -235 -14 -244 -18 -18 -67 1
-71 26 -2 11 -7 29 -12 40 -5 11 -8 31 -8 45 1 14 -4 52 -11 84 -24 108 -44
131 -80 92 -15 -16 -26 -54 -41 -146 -12 -69 -26 -130 -32 -137 -9 -12 -41
-13 -52 -2 -8 8 -9 424 -1 454 4 17 20 53 36 81 18 31 33 78 39 120 13 92 13
328 -1 416 -14 90 -2 101 93 79z"/>
<path d="M776 1740 c-40 -12 -93 -66 -107 -109 -7 -22 -12 -105 -12 -216 0
-194 7 -232 58 -285 42 -44 45 -69 45 -351 l0 -269 75 0 c69 0 75 2 80 23 5
22 45 291 45 301 0 3 4 6 8 6 5 0 19 -74 32 -165 l23 -165 74 0 73 0 0 252 0
253 -46 91 -46 91 -2 224 c-1 208 1 228 21 277 l21 52 -156 -1 c-87 0 -170 -5
-186 -9z m270 -77 c-15 -107 -17 -195 -9 -334 9 -142 10 -148 49 -230 40 -83
41 -86 43 -204 1 -66 4 -128 7 -139 4 -13 2 -16 -6 -11 -9 6 -9 3 -1 -12 6
-11 7 -23 4 -27 -4 -4 -6 -35 -5 -70 3 -66 -8 -87 -41 -82 -26 4 -35 17 -41
66 -23 176 -45 240 -82 240 -24 0 -45 -58 -64 -176 -10 -64 -20 -117 -22 -119
-9 -9 -55 -14 -65 -7 -8 5 -13 81 -15 263 -3 232 -5 258 -23 286 -11 17 -33
52 -49 79 l-30 47 0 186 c-1 169 1 189 19 220 35 58 72 71 214 71 l124 0 -7
-47z"/>
<path d="M33 485 c0 -14 4 -25 9 -25 6 0 5 -7 -2 -15 -10 -12 -10 -15 1 -15 9
0 10 -3 3 -8 -6 -4 -10 -32 -10 -62 0 -46 3 -56 21 -62 19 -6 19 -6 -2 -7 -18
-1 -22 -6 -19 -23 1 -13 11 -25 21 -27 13 -2 16 1 12 13 -3 8 -2 18 3 21 15 9
7 65 -10 66 -10 0 -8 3 5 9 20 8 20 8 1 16 -19 7 -19 8 0 15 17 7 17 8 2 8
-10 1 -18 6 -18 12 0 6 6 9 14 6 12 -5 13 2 9 31 -3 20 -11 40 -17 44 -7 5 -4
8 7 8 9 0 17 5 17 10 0 6 -11 10 -24 10 -18 0 -23 -5 -23 -25z"/>
<path d="M35 180 c-3 -5 -2 -17 3 -26 5 -9 5 -31 -2 -55 -11 -44 -8 -50 20
-43 18 5 20 14 20 70 0 54 -2 64 -17 64 -10 0 -21 -4 -24 -10z"/>
<path d="M44 29 c-8 -14 11 -33 25 -25 6 4 11 11 11 16 0 13 -29 20 -36 9z"/>
</g>
</svg>
