<?xml version="1.0" encoding="UTF-8"?>
<!DOCTYPE svg PUBLIC "-//W3C//DTD SVG 1.1//EN" "http://www.w3.org/Graphics/SVG/1.1/DTD/svg11.dtd">
<svg xmlns="http://www.w3.org/2000/svg" version="1.1" width="200px" height="200px" style="shape-rendering:geometricPrecision; text-rendering:geometricPrecision; image-rendering:optimizeQuality; fill-rule:evenodd; clip-rule:evenodd" xmlns:xlink="http://www.w3.org/1999/xlink">
<g><path style="opacity:0.852" fill="#f9fcfd" d="M 88.5,47.5 C 119.452,45.2139 139.286,58.8806 148,88.5C 150.769,119.475 137.269,139.308 107.5,148C 76.5253,150.769 56.6919,137.269 48,107.5C 45.3487,76.4405 58.8487,56.4405 88.5,47.5 Z"/></g>
<g><path style="opacity:1" fill="#2581c3" d="M 89.5,51.5 C 117.297,49.8163 135.464,62.1496 144,88.5C 146.635,109.723 139.135,126.223 121.5,138C 95.6801,150.055 74.5134,144.555 58,121.5C 45.9059,96.711 50.7393,75.8777 72.5,59C 78.0319,55.8942 83.6986,53.3942 89.5,51.5 Z"/></g>
<g><path style="opacity:1" fill="#c9e3ef" d="M 128.5,67.5 C 110.697,53.0489 92.0301,51.8823 72.5,64C 53.841,81.4544 50.841,101.288 63.5,123.5C 59.3884,118.948 56.555,113.615 55,107.5C 51.9565,80.8858 63.1232,63.3858 88.5,55C 100.248,53.0219 111.248,55.0219 121.5,61C 124.331,62.6657 126.664,64.8324 128.5,67.5 Z"/></g>
<g><path style="opacity:1" fill="#c8e3ef" d="M 128.5,67.5 C 130.74,68.5676 132.574,70.2342 134,72.5C 147.508,96.8837 143.341,117.717 121.5,135C 112.823,140.003 103.49,142.169 93.5,141.5C 96.1667,140.833 98.8333,140.167 101.5,139.5C 119.155,138.023 131.321,129.023 138,112.5C 143.064,95.6486 139.898,80.6486 128.5,67.5 Z"/></g>
<g><path style="opacity:1" fill="#167dc2" d="M 128.5,67.5 C 139.898,80.6486 143.064,95.6486 138,112.5C 131.321,129.023 119.155,138.023 101.5,139.5C 98.1667,139.5 94.8333,139.5 91.5,139.5C 80.3967,137.281 71.0634,131.948 63.5,123.5C 50.841,101.288 53.841,81.4544 72.5,64C 92.0301,51.8823 110.697,53.0489 128.5,67.5 Z"/></g>
<g><path style="opacity:1" fill="#e6f1f7" d="M 120.5,118.5 C 123.687,119.509 125.52,121.509 126,124.5C 124.649,122.981 123.149,121.648 121.5,120.5C 120.833,121.167 120.167,121.833 119.5,122.5C 119.167,122.167 118.833,121.833 118.5,121.5C 119.193,120.482 119.859,119.482 120.5,118.5 Z"/></g>
<g><path style="opacity:1" fill="#e2f0f6" d="M 70.5,113.5 C 72.9272,114.279 72.9272,115.446 70.5,117C 71.9506,116.737 73.2839,116.904 74.5,117.5C 72.5398,119.156 70.5398,120.823 68.5,122.5C 67.2888,121.726 67.2888,120.893 68.5,120C 64.5,119 64.5,118 68.5,117C 69.305,115.887 69.9717,114.721 70.5,113.5 Z"/></g>
<g><path style="opacity:1" fill="#549bc7" d="M 101.5,98.5 C 101.214,100.277 100.547,101.944 99.5,103.5C 99.7472,104.713 100.414,105.38 101.5,105.5C 101.443,106.609 101.11,107.609 100.5,108.5C 99.6739,113.316 99.1739,118.316 99,123.5C 98.5779,121.645 98.0779,119.811 97.5,118C 99.102,111.638 98.7686,105.138 96.5,98.5C 97.2216,98.9175 97.7216,99.5842 98,100.5C 98.6667,96.5 99.3333,96.5 100,100.5C 100.278,99.5842 100.778,98.9175 101.5,98.5 Z"/></g>
<g><path style="opacity:1" fill="#d5e8f2" d="M 124.5,112.5 C 127.946,113.612 129.946,115.945 130.5,119.5C 127.529,119.565 124.862,118.731 122.5,117C 125.411,116.302 126.077,114.802 124.5,112.5 Z"/></g>
<g><path style="opacity:1" fill="#ddedf5" d="M 68.5,110.5 C 70.0281,110.517 70.5281,111.184 70,112.5C 67.9437,114.319 65.7771,114.985 63.5,114.5C 65.4192,113.388 67.0858,112.054 68.5,110.5 Z"/></g>
<g><path style="opacity:1" fill="#e0eef5" d="M 126.5,110.5 C 129.143,110.262 131.809,110.262 134.5,110.5C 134.023,111.931 133.357,113.264 132.5,114.5C 130.815,112.66 128.815,111.327 126.5,110.5 Z"/></g>
<g><path style="opacity:1" fill="#d9e9f3" d="M 66.5,104.5 C 67.6448,105.793 67.3115,106.959 65.5,108C 66.5,108.333 67.5,108.667 68.5,109C 66.5405,109.931 64.5405,110.764 62.5,111.5C 60.876,110.131 60.376,108.464 61,106.5C 62.9483,105.891 64.7816,105.224 66.5,104.5 Z"/></g>
<g><path style="opacity:1" fill="#deedf5" d="M 127.5,104.5 C 130.253,105.022 132.92,105.856 135.5,107C 132.095,107.968 129.429,107.135 127.5,104.5 Z"/></g>
<g><path style="opacity:1" fill="#f6f9fa" d="M 69.5,94.5 C 69.8333,94.5 70.1667,94.5 70.5,94.5C 70.1936,97.3854 70.5269,100.052 71.5,102.5C 72.6936,103.777 74.3603,104.444 76.5,104.5C 79.5656,103.954 82.5656,103.288 85.5,102.5C 86.4293,103.315 87.4293,104.148 88.5,105C 91.8306,105.079 94.8306,105.913 97.5,107.5C 97.077,109.45 96.7437,111.45 96.5,113.5C 90.1667,114.167 83.8333,114.833 77.5,115.5C 78.8569,117.186 80.1902,118.852 81.5,120.5C 76.1332,117.814 72.6332,113.481 71,107.5C 69.8054,103.249 69.3054,98.9152 69.5,94.5 Z"/></g>
<g><path style="opacity:1" fill="#f6f9fb" d="M 125.5,92.5 C 125.833,92.5 126.167,92.5 126.5,92.5C 126.5,95.8333 126.5,99.1667 126.5,102.5C 125.465,109.577 122.132,115.244 116.5,119.5C 116.062,119.565 115.728,119.399 115.5,119C 116.5,118 117.5,117 118.5,116C 112.843,115.501 107.176,115.334 101.5,115.5C 100.639,112.968 100.305,110.635 100.5,108.5C 101.11,107.609 101.443,106.609 101.5,105.5C 106.069,106.114 110.069,105.114 113.5,102.5C 123.952,107.193 127.952,103.86 125.5,92.5 Z"/></g>
<g><path style="opacity:1" fill="#89bbd6" d="M 91.5,100.5 C 94.2601,102.254 96.2601,104.588 97.5,107.5C 94.8306,105.913 91.8306,105.079 88.5,105C 87.4293,104.148 86.4293,103.315 85.5,102.5C 86.391,101.89 87.391,101.557 88.5,101.5C 89.609,101.443 90.609,101.11 91.5,100.5 Z"/></g>
<g><path style="opacity:1" fill="#aecdde" d="M 101.5,98.5 C 103.565,98.5172 105.565,98.8505 107.5,99.5C 109.216,101.025 111.216,102.025 113.5,102.5C 110.069,105.114 106.069,106.114 101.5,105.5C 100.414,105.38 99.7472,104.713 99.5,103.5C 100.547,101.944 101.214,100.277 101.5,98.5 Z"/></g>
<g><path style="opacity:1" fill="#ebf4f9" d="M 60.5,98.5 C 61.404,99.209 61.7373,100.209 61.5,101.5C 62.9778,101.762 64.3112,101.429 65.5,100.5C 64.3707,98.4706 64.8707,98.1373 67,99.5C 67.8601,102.478 66.6934,103.812 63.5,103.5C 59.7117,103.456 58.7117,101.79 60.5,98.5 Z"/></g>
<g><path style="opacity:1" fill="#b4aeaa" d="M 92.5,96.5 C 91.1667,98.1667 89.8333,99.8333 88.5,101.5C 87.391,101.557 86.391,101.89 85.5,102.5C 82.5656,103.288 79.5656,103.954 76.5,104.5C 74.3603,104.444 72.6936,103.777 71.5,102.5C 71.3802,99.7952 72.3802,99.1285 74.5,100.5C 77.094,97.2489 80.2606,96.5823 84,98.5C 86.7607,97.5824 89.5941,96.9157 92.5,96.5 Z"/></g>
<g><path style="opacity:1" fill="#e2eff6" d="M 136.5,98.5 C 136.5,99.8333 136.5,101.167 136.5,102.5C 135.081,103.451 133.415,103.784 131.5,103.5C 131.5,102.5 131.5,101.5 131.5,100.5C 130.325,100.719 129.325,100.386 128.5,99.5C 131.086,98.52 133.753,98.1866 136.5,98.5 Z"/></g>
<g><path style="opacity:1" fill="#579ecb" d="M 102.5,96.5 C 104.933,96.2729 106.599,97.2729 107.5,99.5C 105.565,98.8505 103.565,98.5172 101.5,98.5C 101.833,97.8333 102.167,97.1667 102.5,96.5 Z"/></g>
<g><path style="opacity:1" fill="#5fa2cc" d="M 92.5,96.5 C 94.3797,96.2291 95.713,96.8958 96.5,98.5C 94.302,98.1201 92.6354,98.7868 91.5,100.5C 90.609,101.11 89.609,101.443 88.5,101.5C 89.8333,99.8333 91.1667,98.1667 92.5,96.5 Z"/></g>
<g><path style="opacity:1" fill="#b5b3b6" d="M 124.5,91.5 C 125.167,91.5 125.5,91.8333 125.5,92.5C 127.952,103.86 123.952,107.193 113.5,102.5C 111.216,102.025 109.216,101.025 107.5,99.5C 106.599,97.2729 104.933,96.2729 102.5,96.5C 101.833,96.5 101.5,96.1667 101.5,95.5C 108.612,94.411 115.612,93.911 122.5,94C 123.756,93.5831 124.423,92.7498 124.5,91.5 Z"/></g>
<g><path style="opacity:1" fill="#d0e0e9" d="M 100.5,94.5 C 101.167,94.5 101.5,94.8333 101.5,95.5C 101.5,96.1667 101.833,96.5 102.5,96.5C 102.167,97.1667 101.833,97.8333 101.5,98.5C 100.778,98.9175 100.278,99.5842 100,100.5C 99.3333,96.5 98.6667,96.5 98,100.5C 97.7216,99.5842 97.2216,98.9175 96.5,98.5C 95.713,96.8958 94.3797,96.2291 92.5,96.5C 94.9052,95.2318 97.5718,94.5651 100.5,94.5 Z"/></g>
<g><path style="opacity:1" fill="#a8a9b1" d="M 71.5,93.5 C 74.1711,94.2979 77.0044,94.9646 80,95.5C 86.9233,93.6256 93.7566,93.2923 100.5,94.5C 97.5718,94.5651 94.9052,95.2318 92.5,96.5C 89.5941,96.9157 86.7607,97.5824 84,98.5C 80.2606,96.5823 77.094,97.2489 74.5,100.5C 72.3802,99.1285 71.3802,99.7952 71.5,102.5C 70.5269,100.052 70.1936,97.3854 70.5,94.5C 70.5,93.8333 70.8333,93.5 71.5,93.5 Z"/></g>
<g><path style="opacity:1" fill="#bedbec" d="M 59.5,90.5 C 62.3097,91.4798 64.9764,92.8131 67.5,94.5C 65.187,95.2733 62.8537,95.9399 60.5,96.5C 59.5344,94.604 59.2011,92.604 59.5,90.5 Z"/></g>
<g><path style="opacity:1" fill="#388ec8" d="M 127.5,86.5 C 127.384,89.9103 129.05,91.2436 132.5,90.5C 134.292,91.3091 136.292,91.8091 138.5,92C 137.233,93.7959 137.233,95.6293 138.5,97.5C 137.972,99.3361 137.306,101.003 136.5,102.5C 136.5,101.167 136.5,99.8333 136.5,98.5C 135.432,97.5655 134.099,97.2322 132.5,97.5C 132.971,96.0992 133.638,94.7658 134.5,93.5C 134.998,94.6034 135.331,95.6034 135.5,96.5C 136.429,95.3112 136.762,93.9778 136.5,92.5C 134.019,92.3234 132.186,93.3234 131,95.5C 130.383,94.5509 130.549,93.7175 131.5,93C 130.423,92.5304 129.423,92.6971 128.5,93.5C 127.757,95.9094 127.091,98.9094 126.5,102.5C 126.5,99.1667 126.5,95.8333 126.5,92.5C 126.167,91.1667 125.833,89.8333 125.5,88.5C 126.167,87.8333 126.833,87.1667 127.5,86.5 Z"/></g>
<g><path style="opacity:1" fill="#e6f2f7" d="M 132.5,97.5 C 129.5,97.8333 128.167,96.5 128.5,93.5C 129.423,92.6971 130.423,92.5304 131.5,93C 130.549,93.7175 130.383,94.5509 131,95.5C 132.186,93.3234 134.019,92.3234 136.5,92.5C 136.762,93.9778 136.429,95.3112 135.5,96.5C 135.331,95.6034 134.998,94.6034 134.5,93.5C 133.638,94.7658 132.971,96.0992 132.5,97.5 Z"/></g>
<g><path style="opacity:1" fill="#91929f" d="M 115.5,87.5 C 117.607,86.5318 119.941,86.1984 122.5,86.5C 123.537,87.9303 124.204,89.597 124.5,91.5C 124.423,92.7498 123.756,93.5831 122.5,94C 115.612,93.911 108.612,94.411 101.5,95.5C 101.5,94.8333 101.167,94.5 100.5,94.5C 93.7566,93.2923 86.9233,93.6256 80,95.5C 77.0044,94.9646 74.1711,94.2979 71.5,93.5C 71.5,93.1667 71.5,92.8333 71.5,92.5C 87.7438,91.0908 104.077,90.2575 120.5,90C 118.807,89.1534 117.14,88.3201 115.5,87.5 Z"/></g>
<g><path style="opacity:1" fill="#ddedf5" d="M 132.5,90.5 C 129.05,91.2436 127.384,89.9103 127.5,86.5C 129.455,84.6742 131.788,84.1742 134.5,85C 135.934,87.5283 135.267,89.3617 132.5,90.5 Z"/></g>
<g><path style="opacity:1" fill="#1477be" d="M 129.5,86.5 C 133.588,86.2184 134.088,86.8851 131,88.5C 129.97,88.1639 129.47,87.4972 129.5,86.5 Z"/></g>
<g><path style="opacity:1" fill="#dfeef4" d="M 63.5,79.5 C 64.2674,80.172 64.9341,81.0053 65.5,82C 67.2556,82.2022 68.9223,82.7022 70.5,83.5C 69.5,84.1667 68.5,84.8333 67.5,85.5C 69.6934,87.382 69.0267,87.882 65.5,87C 63.9984,86.4169 62.6651,85.5836 61.5,84.5C 63.0049,83.1585 63.6715,81.4918 63.5,79.5 Z"/></g>
<g><path style="opacity:1" fill="#e2f0f6" d="M 65.5,76.5 C 68.1161,77.4798 70.4494,78.9798 72.5,81C 70.4021,80.9678 68.4021,80.3011 66.5,79C 65.7476,78.3292 65.4142,77.4959 65.5,76.5 Z"/></g>
<g><path style="opacity:1" fill="#dcecf4" d="M 128.5,76.5 C 129.376,76.3691 130.043,76.7025 130.5,77.5C 129.674,78.451 129.508,79.451 130,80.5C 130.893,79.2888 131.726,79.2888 132.5,80.5C 130.574,82.9766 128.241,83.9766 125.5,83.5C 126.167,82.8333 126.833,82.1667 127.5,81.5C 126.167,81.1667 124.833,80.8333 123.5,80.5C 125.015,78.9178 126.681,77.5845 128.5,76.5 Z"/></g>
<g><path style="opacity:1" fill="#e7f2f7" d="M 67.5,74.5 C 69.5295,73.7276 71.3629,74.3943 73,76.5C 77.4224,75.482 77.4224,76.1486 73,78.5C 71.019,77.3498 69.1857,76.0165 67.5,74.5 Z"/></g>
<g><path style="opacity:1" fill="#d3e0e5" d="M 125.5,88.5 C 125.833,89.8333 126.167,91.1667 126.5,92.5C 126.167,92.5 125.833,92.5 125.5,92.5C 125.5,91.8333 125.167,91.5 124.5,91.5C 124.204,89.597 123.537,87.9303 122.5,86.5C 121.99,83.3257 120.323,80.9923 117.5,79.5C 114.315,75.0691 109.981,72.4024 104.5,71.5C 97.9478,69.8838 91.6144,70.5505 85.5,73.5C 83.0905,74.7007 81.0905,76.3674 79.5,78.5C 77.1097,79.8908 75.4431,81.8908 74.5,84.5C 73.1302,86.2504 72.1302,88.2504 71.5,90.5C 71.5,91.1667 71.5,91.8333 71.5,92.5C 71.5,92.8333 71.5,93.1667 71.5,93.5C 70.8333,93.5 70.5,93.8333 70.5,94.5C 70.1667,94.5 69.8333,94.5 69.5,94.5C 71.6142,82.2143 78.6142,74.0476 90.5,70C 106.975,67.2359 118.642,73.4026 125.5,88.5 Z"/></g>
<g><path style="opacity:1" fill="#6e7282" d="M 104.5,87.5 C 106.368,86.2431 108.035,86.5764 109.5,88.5C 110.293,87.6446 109.96,86.8113 108.5,86C 109,85.8333 109.5,85.6667 110,85.5C 111.567,86.8561 113.4,87.5228 115.5,87.5C 117.14,88.3201 118.807,89.1534 120.5,90C 104.077,90.2575 87.7438,91.0908 71.5,92.5C 71.5,91.8333 71.5,91.1667 71.5,90.5C 76.0177,90.0296 80.351,88.8629 84.5,87C 87.8936,86.2483 91.227,86.4149 94.5,87.5C 96.0589,86.9264 97.5589,86.2598 99,85.5C 100.401,87.1922 102.234,87.8588 104.5,87.5 Z"/></g>
<g><path style="opacity:1" fill="#999598" d="M 91.5,79.5 C 91.8333,79.5 92.1667,79.5 92.5,79.5C 92.5,81.1667 92.5,82.8333 92.5,84.5C 96.1667,84.5 99.8333,84.5 103.5,84.5C 103.5,82.8333 103.5,81.1667 103.5,79.5C 104.473,81.9479 104.806,84.6146 104.5,87.5C 102.234,87.8588 100.401,87.1922 99,85.5C 97.5589,86.2598 96.0589,86.9264 94.5,87.5C 91.227,86.4149 87.8936,86.2483 84.5,87C 80.351,88.8629 76.0177,90.0296 71.5,90.5C 72.1302,88.2504 73.1302,86.2504 74.5,84.5C 78.9213,85.1851 83.4213,85.5184 88,85.5C 88.7096,84.0267 89.8762,83.3601 91.5,83.5C 91.5,82.1667 91.5,80.8333 91.5,79.5 Z"/></g>
<g><path style="opacity:1" fill="#677d89" d="M 101.5,76.5 C 106.632,78.1348 111.965,79.1348 117.5,79.5C 120.323,80.9923 121.99,83.3257 122.5,86.5C 119.941,86.1984 117.607,86.5318 115.5,87.5C 113.4,87.5228 111.567,86.8561 110,85.5C 109.5,85.6667 109,85.8333 108.5,86C 109.96,86.8113 110.293,87.6446 109.5,88.5C 108.035,86.5764 106.368,86.2431 104.5,87.5C 104.806,84.6146 104.473,81.9479 103.5,79.5C 102.833,78.5 102.167,77.5 101.5,76.5 Z"/></g>
<g><path style="opacity:1" fill="#7d848d" d="M 79.5,78.5 C 83.5483,78.3946 87.5483,78.7279 91.5,79.5C 91.5,80.8333 91.5,82.1667 91.5,83.5C 89.8762,83.3601 88.7096,84.0267 88,85.5C 83.4213,85.5184 78.9213,85.1851 74.5,84.5C 75.4431,81.8908 77.1097,79.8908 79.5,78.5 Z"/></g>
<g><path style="opacity:1" fill="#e6a169" d="M 101.5,76.5 C 102.167,77.5 102.833,78.5 103.5,79.5C 103.5,81.1667 103.5,82.8333 103.5,84.5C 99.8333,84.5 96.1667,84.5 92.5,84.5C 92.5,82.8333 92.5,81.1667 92.5,79.5C 94.5297,75.6264 97.5297,74.6264 101.5,76.5 Z"/></g>
<g><path style="opacity:1" fill="#26636e" d="M 104.5,71.5 C 109.981,72.4024 114.315,75.0691 117.5,79.5C 111.965,79.1348 106.632,78.1348 101.5,76.5C 97.5297,74.6264 94.5297,75.6264 92.5,79.5C 92.1667,79.5 91.8333,79.5 91.5,79.5C 87.5483,78.7279 83.5483,78.3946 79.5,78.5C 81.0905,76.3674 83.0905,74.7007 85.5,73.5C 89.3112,74.6453 93.3112,74.8119 97.5,74C 99.8329,72.957 102.166,72.1237 104.5,71.5 Z"/></g>
<g><path style="opacity:1" fill="#0b424f" d="M 104.5,71.5 C 102.166,72.1237 99.8329,72.957 97.5,74C 93.3112,74.8119 89.3112,74.6453 85.5,73.5C 91.6144,70.5505 97.9478,69.8838 104.5,71.5 Z"/></g>
<g><path style="opacity:1" fill="#deedf4" d="M 119.5,68.5 C 124.747,68.6398 125.747,70.8064 122.5,75C 117.148,75.1754 116.148,73.0087 119.5,68.5 Z"/></g>
<g><path style="opacity:1" fill="#0973bc" d="M 120.5,70.5 C 123.012,71.2162 123.012,72.2162 120.5,73.5C 119.438,72.5754 119.438,71.5754 120.5,70.5 Z"/></g>
<g><path style="opacity:1" fill="#e9f4f8" d="M 72.5,68.5 C 74.797,69.8347 76.797,71.6681 78.5,74C 75.4735,73.4813 73.4735,71.648 72.5,68.5 Z"/></g>
<g><path style="opacity:1" fill="#dfedf5" d="M 114.5,63.5 C 116.567,63.5323 117.9,64.5323 118.5,66.5C 117.5,68.5 116.5,70.5 115.5,72.5C 114.719,71.2713 114.219,69.938 114,68.5C 113.189,69.9597 112.355,70.293 111.5,69.5C 112.513,67.4734 113.513,65.4734 114.5,63.5 Z"/></g>
<g><path style="opacity:1" fill="#e1eff6" d="M 102.5,59.5 C 103.693,59.9704 104.36,60.9704 104.5,62.5C 104.8,66.1769 103.134,67.8436 99.5,67.5C 99.1192,65.0582 99.7859,64.3915 101.5,65.5C 102.466,63.604 102.799,61.604 102.5,59.5 Z"/></g>
<g><path style="opacity:1" fill="#daebf3" d="M 85.5,61.5 C 86.552,61.3505 87.552,61.5172 88.5,62C 89.627,63.7533 90.627,65.5866 91.5,67.5C 90.6086,68.5896 89.6086,68.5896 88.5,67.5C 86.7179,70.3821 84.8846,70.7154 83,68.5C 82.7787,71.9431 81.7787,72.2764 80,69.5C 80.0773,70.7376 79.9106,71.7376 79.5,72.5C 77.2802,70.4491 76.6136,68.1157 77.5,65.5C 80.1804,68.4429 80.847,68.1096 79.5,64.5C 80,64.1667 80.5,63.8333 81,63.5C 82.5648,64.9525 83.8982,66.6191 85,68.5C 85.4966,66.1902 85.6633,63.8568 85.5,61.5 Z"/></g>
<g><path style="opacity:1" fill="#d7eaf2" d="M 108.5,61.5 C 109.748,62.3339 110.415,63.6672 110.5,65.5C 110.535,69.2452 109.535,69.9119 107.5,67.5C 106.391,68.5896 105.391,68.5896 104.5,67.5C 105.467,65.2099 106.8,63.2099 108.5,61.5 Z"/></g>
<g><path style="opacity:1" fill="#d8eaf3" d="M 92.5,59.5 C 93.8846,60.5736 95.0513,61.9069 96,63.5C 96.2189,62.062 96.7189,60.7287 97.5,59.5C 98.8333,62.1667 98.8333,64.8333 97.5,67.5C 96.5224,67.0233 95.6891,66.3567 95,65.5C 94.6924,66.3081 94.1924,66.9747 93.5,67.5C 92.52,64.9135 92.1866,62.2469 92.5,59.5 Z"/></g>
<g><path style="opacity:1" fill="#cae7f6" d="M 96.5,98.5 C 98.7686,105.138 99.102,111.638 97.5,118C 98.0779,119.811 98.5779,121.645 99,123.5C 99.1739,118.316 99.6739,113.316 100.5,108.5C 100.305,110.635 100.639,112.968 101.5,115.5C 107.176,115.334 112.843,115.501 118.5,116C 117.5,117 116.5,118 115.5,119C 115.728,119.399 116.062,119.565 116.5,119.5C 108.275,126.365 98.9417,128.198 88.5,125C 85.7613,123.974 83.428,122.474 81.5,120.5C 80.1902,118.852 78.8569,117.186 77.5,115.5C 83.8333,114.833 90.1667,114.167 96.5,113.5C 96.7437,111.45 97.077,109.45 97.5,107.5C 96.2601,104.588 94.2601,102.254 91.5,100.5C 92.6354,98.7868 94.302,98.1201 96.5,98.5 Z"/></g>
<g><path style="opacity:1" fill="#cbe3ef" d="M 63.5,123.5 C 71.0634,131.948 80.3967,137.281 91.5,139.5C 91.1583,140.338 90.4916,140.672 89.5,140.5C 78.1398,138.782 69.4731,133.115 63.5,123.5 Z"/></g>
<g><path style="opacity:1" fill="#72b4d9" d="M 91.5,139.5 C 94.8333,139.5 98.1667,139.5 101.5,139.5C 98.8333,140.167 96.1667,140.833 93.5,141.5C 91.901,141.768 90.5676,141.434 89.5,140.5C 90.4916,140.672 91.1583,140.338 91.5,139.5 Z"/></g>
</svg>
